<mxfile host="app.diagrams.net" agent="Mozilla/5.0 (Windows NT 10.0; Win64; x64) AppleWebKit/537.36 (KHTML, like Gecko) Chrome/131.0.0.0 Safari/537.36 Edg/131.0.0.0" version="26.0.5">
  <diagram name="Page-1" id="PRGsYoescyfhFOkB7SoC">
    <mxGraphModel dx="776" dy="872" grid="1" gridSize="10" guides="1" tooltips="1" connect="1" arrows="1" fold="1" page="1" pageScale="1" pageWidth="827" pageHeight="1169" math="0" shadow="0">
      <root>
        <mxCell id="0" />
        <mxCell id="1" parent="0" />
        <mxCell id="nyr0VhtFXws825Zi8dbS-15" value="" style="verticalAlign=top;align=left;spacingTop=8;spacingLeft=2;spacingRight=12;shape=cube;size=10;direction=south;fontStyle=4;html=1;whiteSpace=wrap;fontSize=14;" parent="1" vertex="1">
          <mxGeometry x="1240" y="230" width="2090" height="1560" as="geometry" />
        </mxCell>
        <mxCell id="DEsD6xPvK2tIraXB0Mm6-1" value="" style="group;fontSize=14;" parent="1" vertex="1" connectable="0">
          <mxGeometry x="3014" y="1420" width="205" height="260" as="geometry" />
        </mxCell>
        <mxCell id="DEsD6xPvK2tIraXB0Mm6-2" value="" style="verticalAlign=top;align=left;spacingTop=8;spacingLeft=2;spacingRight=12;shape=cube;size=10;direction=south;fontStyle=4;html=1;whiteSpace=wrap;fontSize=14;" parent="DEsD6xPvK2tIraXB0Mm6-1" vertex="1">
          <mxGeometry width="170" height="260" as="geometry" />
        </mxCell>
        <mxCell id="DEsD6xPvK2tIraXB0Mm6-3" value="&lt;font&gt;&lt;u&gt;Docker 27.1.1 /&lt;/u&gt;&lt;/font&gt;&lt;div&gt;&lt;font&gt;&lt;u&gt;&amp;nbsp;Alpine Linux v3.20.3&lt;/u&gt;&lt;/font&gt;&lt;/div&gt;" style="text;html=1;align=center;verticalAlign=middle;resizable=0;points=[];autosize=1;strokeColor=none;fillColor=none;fontSize=14;" parent="DEsD6xPvK2tIraXB0Mm6-1" vertex="1">
          <mxGeometry x="5" y="9.444444444444445" width="150" height="50" as="geometry" />
        </mxCell>
        <mxCell id="DEsD6xPvK2tIraXB0Mm6-4" value="" style="verticalAlign=top;align=left;spacingTop=8;spacingLeft=2;spacingRight=12;shape=cube;size=10;direction=south;fontStyle=4;html=1;whiteSpace=wrap;fontSize=14;" parent="DEsD6xPvK2tIraXB0Mm6-1" vertex="1">
          <mxGeometry x="8.75" y="60" width="142.5" height="185.56" as="geometry" />
        </mxCell>
        <mxCell id="DEsD6xPvK2tIraXB0Mm6-5" value="&lt;font&gt;Web Server&lt;/font&gt;" style="text;html=1;align=center;verticalAlign=middle;resizable=0;points=[];autosize=1;strokeColor=none;fillColor=none;fontSize=14;" parent="DEsD6xPvK2tIraXB0Mm6-1" vertex="1">
          <mxGeometry x="30" y="79.99666666666667" width="100" height="30" as="geometry" />
        </mxCell>
        <mxCell id="DEsD6xPvK2tIraXB0Mm6-6" value="" style="shape=module;align=left;spacingLeft=20;align=center;verticalAlign=top;whiteSpace=wrap;html=1;fontSize=14;" parent="DEsD6xPvK2tIraXB0Mm6-1" vertex="1">
          <mxGeometry x="10" y="180" width="120" height="51.11" as="geometry" />
        </mxCell>
        <mxCell id="DEsD6xPvK2tIraXB0Mm6-7" value="&lt;font&gt;React bundle&lt;br&gt;18.2.0&lt;/font&gt;" style="text;html=1;align=center;verticalAlign=middle;resizable=0;points=[];autosize=1;strokeColor=none;fillColor=none;fontSize=14;" parent="DEsD6xPvK2tIraXB0Mm6-1" vertex="1">
          <mxGeometry x="25" y="180.00333333333333" width="110" height="50" as="geometry" />
        </mxCell>
        <mxCell id="DEsD6xPvK2tIraXB0Mm6-8" value="" style="shape=module;align=left;spacingLeft=20;align=center;verticalAlign=top;whiteSpace=wrap;html=1;fontSize=14;" parent="DEsD6xPvK2tIraXB0Mm6-1" vertex="1">
          <mxGeometry x="10" y="120" width="120" height="47.78" as="geometry" />
        </mxCell>
        <mxCell id="DEsD6xPvK2tIraXB0Mm6-9" value="&lt;font&gt;nginx 1.27.3&lt;/font&gt;" style="text;html=1;align=center;verticalAlign=middle;resizable=0;points=[];autosize=1;strokeColor=none;fillColor=none;fontSize=14;" parent="DEsD6xPvK2tIraXB0Mm6-1" vertex="1">
          <mxGeometry x="30" y="127.2233333333333" width="100" height="30" as="geometry" />
        </mxCell>
        <mxCell id="DEsD6xPvK2tIraXB0Mm6-10" value="" style="group;fontSize=14;" parent="1" vertex="1" connectable="0">
          <mxGeometry x="2960" y="1890" width="250" height="130" as="geometry" />
        </mxCell>
        <mxCell id="DEsD6xPvK2tIraXB0Mm6-11" value="" style="verticalAlign=top;align=left;spacingTop=8;spacingLeft=2;spacingRight=12;shape=cube;size=10;direction=south;fontStyle=4;html=1;whiteSpace=wrap;fontSize=14;" parent="DEsD6xPvK2tIraXB0Mm6-10" vertex="1">
          <mxGeometry width="223.6842105263158" height="130" as="geometry" />
        </mxCell>
        <mxCell id="DEsD6xPvK2tIraXB0Mm6-12" value="&lt;span&gt;&lt;u&gt;Microsoft Edge 131.0.2903.112&lt;/u&gt;&lt;/span&gt;" style="text;html=1;align=center;verticalAlign=middle;resizable=0;points=[];autosize=1;strokeColor=none;fillColor=none;fontSize=14;" parent="DEsD6xPvK2tIraXB0Mm6-10" vertex="1">
          <mxGeometry x="-0.003684210526323284" y="30.55333333333333" width="220" height="30" as="geometry" />
        </mxCell>
        <mxCell id="DEsD6xPvK2tIraXB0Mm6-13" value="&lt;span&gt;Client&lt;/span&gt;" style="text;html=1;align=center;verticalAlign=middle;resizable=0;points=[];autosize=1;strokeColor=none;fillColor=none;fontSize=14;" parent="DEsD6xPvK2tIraXB0Mm6-10" vertex="1">
          <mxGeometry x="80.00052631578947" y="10.00333333333333" width="60" height="30" as="geometry" />
        </mxCell>
        <mxCell id="nyr0VhtFXws825Zi8dbS-60" value="" style="group" parent="DEsD6xPvK2tIraXB0Mm6-10" vertex="1" connectable="0">
          <mxGeometry x="40" y="60" width="131.58000000000004" height="50" as="geometry" />
        </mxCell>
        <mxCell id="DEsD6xPvK2tIraXB0Mm6-14" value="" style="shape=module;align=left;spacingLeft=20;align=center;verticalAlign=top;whiteSpace=wrap;html=1;fontSize=14;" parent="nyr0VhtFXws825Zi8dbS-60" vertex="1">
          <mxGeometry width="131.58" height="50" as="geometry" />
        </mxCell>
        <mxCell id="DEsD6xPvK2tIraXB0Mm6-15" value="&lt;font&gt;React 18.2.0&lt;/font&gt;" style="text;html=1;align=center;verticalAlign=middle;resizable=0;points=[];autosize=1;strokeColor=none;fillColor=none;fontSize=14;" parent="nyr0VhtFXws825Zi8dbS-60" vertex="1">
          <mxGeometry x="15.792631578947379" y="9.996666666666684" width="100" height="30" as="geometry" />
        </mxCell>
        <mxCell id="DEsD6xPvK2tIraXB0Mm6-16" value="" style="group;fontSize=14;" parent="1" vertex="1" connectable="0">
          <mxGeometry x="3360" y="1029" width="120" height="50" as="geometry" />
        </mxCell>
        <mxCell id="DEsD6xPvK2tIraXB0Mm6-17" value="" style="verticalAlign=top;align=left;spacingTop=8;spacingLeft=2;spacingRight=12;shape=cube;size=10;direction=south;fontStyle=4;html=1;whiteSpace=wrap;fontSize=14;" parent="DEsD6xPvK2tIraXB0Mm6-16" vertex="1">
          <mxGeometry width="120" height="50" as="geometry" />
        </mxCell>
        <mxCell id="DEsD6xPvK2tIraXB0Mm6-18" value="&lt;span&gt;StripeAPI&lt;/span&gt;" style="text;html=1;align=center;verticalAlign=middle;resizable=0;points=[];autosize=1;strokeColor=none;fillColor=none;fontSize=14;" parent="DEsD6xPvK2tIraXB0Mm6-16" vertex="1">
          <mxGeometry x="10" y="9.998518518518518" width="80" height="30" as="geometry" />
        </mxCell>
        <mxCell id="DEsD6xPvK2tIraXB0Mm6-19" value="" style="group;fontSize=14;" parent="1" vertex="1" connectable="0">
          <mxGeometry x="2990" y="860" width="190" height="170" as="geometry" />
        </mxCell>
        <mxCell id="DEsD6xPvK2tIraXB0Mm6-20" value="" style="verticalAlign=top;align=left;spacingTop=8;spacingLeft=2;spacingRight=12;shape=cube;size=10;direction=south;fontStyle=4;html=1;whiteSpace=wrap;fontSize=14;" parent="DEsD6xPvK2tIraXB0Mm6-19" vertex="1">
          <mxGeometry y="11.33333333333333" width="170" height="158.66666666666663" as="geometry" />
        </mxCell>
        <mxCell id="DEsD6xPvK2tIraXB0Mm6-21" value="&lt;u&gt;Docker 27.1.1 /&lt;/u&gt;&lt;div&gt;&lt;u&gt;&amp;nbsp;Alpine Linux v3.21&lt;/u&gt;&lt;/div&gt;" style="text;html=1;align=center;verticalAlign=middle;resizable=0;points=[];autosize=1;strokeColor=none;fillColor=none;fontSize=14;" parent="DEsD6xPvK2tIraXB0Mm6-19" vertex="1">
          <mxGeometry x="7.5" y="22.275898989898987" width="140" height="50" as="geometry" />
        </mxCell>
        <mxCell id="DEsD6xPvK2tIraXB0Mm6-22" value="" style="group;fontSize=14;" parent="DEsD6xPvK2tIraXB0Mm6-19" vertex="1" connectable="0">
          <mxGeometry x="25" y="77.27" width="135" height="72.73" as="geometry" />
        </mxCell>
        <mxCell id="DEsD6xPvK2tIraXB0Mm6-23" value="" style="shape=module;align=left;spacingLeft=20;align=center;verticalAlign=top;whiteSpace=wrap;html=1;fontSize=14;" parent="DEsD6xPvK2tIraXB0Mm6-22" vertex="1">
          <mxGeometry x="-11.205533596837947" width="133.9285375494071" height="57.970667941973545" as="geometry" />
        </mxCell>
        <mxCell id="DEsD6xPvK2tIraXB0Mm6-24" value="&lt;font&gt;Stripe CLI 1.23.0&lt;/font&gt;" style="text;html=1;align=center;verticalAlign=middle;resizable=0;points=[];autosize=1;strokeColor=none;fillColor=none;fontSize=14;" parent="DEsD6xPvK2tIraXB0Mm6-22" vertex="1">
          <mxGeometry x="-0.0019367588932812652" y="13.987981354661168" width="130" height="30" as="geometry" />
        </mxCell>
        <mxCell id="DEsD6xPvK2tIraXB0Mm6-25" value="" style="group;fontSize=14;" parent="1" vertex="1" connectable="0">
          <mxGeometry x="1260" y="1130" width="246" height="170" as="geometry" />
        </mxCell>
        <mxCell id="DEsD6xPvK2tIraXB0Mm6-26" value="" style="verticalAlign=top;align=left;spacingTop=8;spacingLeft=2;spacingRight=12;shape=cube;size=10;direction=south;fontStyle=4;html=1;whiteSpace=wrap;fontSize=14;" parent="DEsD6xPvK2tIraXB0Mm6-25" vertex="1">
          <mxGeometry y="9.33" width="209.1" height="160.67" as="geometry" />
        </mxCell>
        <mxCell id="DEsD6xPvK2tIraXB0Mm6-27" value="&lt;font&gt;&lt;u&gt;Docker 27.1.1 /&lt;br&gt;&amp;nbsp;Debian GNU/&lt;/u&gt;&lt;/font&gt;&lt;div&gt;&lt;font&gt;&lt;u&gt;Linux 12 (bookworm)&lt;/u&gt;&lt;/font&gt;&lt;/div&gt;" style="text;html=1;align=center;verticalAlign=middle;resizable=0;points=[];autosize=1;strokeColor=none;fillColor=none;fontSize=14;" parent="DEsD6xPvK2tIraXB0Mm6-25" vertex="1">
          <mxGeometry x="25.999999999999996" y="19.99250505050505" width="150" height="60" as="geometry" />
        </mxCell>
        <mxCell id="DEsD6xPvK2tIraXB0Mm6-28" value="" style="group;fontSize=14;" parent="DEsD6xPvK2tIraXB0Mm6-25" vertex="1" connectable="0">
          <mxGeometry x="30.28" y="79.99636363636364" width="141.45" height="62.64363636363636" as="geometry" />
        </mxCell>
        <mxCell id="DEsD6xPvK2tIraXB0Mm6-29" value="" style="shape=module;align=left;spacingLeft=20;align=center;verticalAlign=top;whiteSpace=wrap;html=1;fontSize=14;" parent="DEsD6xPvK2tIraXB0Mm6-28" vertex="1">
          <mxGeometry width="140" height="62.64" as="geometry" />
        </mxCell>
        <mxCell id="DEsD6xPvK2tIraXB0Mm6-30" value="&lt;font&gt;Localstack&amp;nbsp;3.8.2&lt;/font&gt;" style="text;html=1;align=center;verticalAlign=middle;resizable=0;points=[];autosize=1;strokeColor=none;fillColor=none;fontSize=14;" parent="DEsD6xPvK2tIraXB0Mm6-28" vertex="1">
          <mxGeometry x="19" y="10.998972653362898" width="120" height="30" as="geometry" />
        </mxCell>
        <mxCell id="DEsD6xPvK2tIraXB0Mm6-31" value="" style="group;fontSize=14;" parent="1" vertex="1" connectable="0">
          <mxGeometry x="1920" y="1100" width="200" height="150" as="geometry" />
        </mxCell>
        <mxCell id="DEsD6xPvK2tIraXB0Mm6-32" value="" style="verticalAlign=top;align=left;spacingTop=8;spacingLeft=2;spacingRight=12;shape=cube;size=10;direction=south;fontStyle=4;html=1;whiteSpace=wrap;fontSize=14;" parent="DEsD6xPvK2tIraXB0Mm6-31" vertex="1">
          <mxGeometry y="10" width="170" height="140" as="geometry" />
        </mxCell>
        <mxCell id="DEsD6xPvK2tIraXB0Mm6-33" value="&lt;font&gt;&lt;u&gt;Docker 27.1.1 /&lt;/u&gt;&lt;/font&gt;&lt;div&gt;&lt;font&gt;&lt;u&gt;&amp;nbsp;Alpine Linux v3.19&lt;/u&gt;&lt;/font&gt;&lt;/div&gt;" style="text;html=1;align=center;verticalAlign=middle;resizable=0;points=[];autosize=1;strokeColor=none;fillColor=none;fontSize=14;" parent="DEsD6xPvK2tIraXB0Mm6-31" vertex="1">
          <mxGeometry x="10" y="14.003333333333334" width="140" height="50" as="geometry" />
        </mxCell>
        <mxCell id="DEsD6xPvK2tIraXB0Mm6-34" value="" style="group;fontSize=14;" parent="DEsD6xPvK2tIraXB0Mm6-31" vertex="1" connectable="0">
          <mxGeometry x="20" y="68.18" width="130" height="51.82" as="geometry" />
        </mxCell>
        <mxCell id="DEsD6xPvK2tIraXB0Mm6-35" value="" style="shape=module;align=left;spacingLeft=20;align=center;verticalAlign=top;whiteSpace=wrap;html=1;fontSize=14;" parent="DEsD6xPvK2tIraXB0Mm6-34" vertex="1">
          <mxGeometry width="118.18181818181817" height="51.82" as="geometry" />
        </mxCell>
        <mxCell id="DEsD6xPvK2tIraXB0Mm6-36" value="&lt;font&gt;Migrate&amp;nbsp;4.18.1&lt;/font&gt;" style="text;html=1;align=center;verticalAlign=middle;resizable=0;points=[];autosize=1;strokeColor=none;fillColor=none;fontSize=14;" parent="DEsD6xPvK2tIraXB0Mm6-34" vertex="1">
          <mxGeometry x="10.002173913043478" y="10.9060373133307" width="110" height="30" as="geometry" />
        </mxCell>
        <mxCell id="DEsD6xPvK2tIraXB0Mm6-37" value="" style="endArrow=classic;startArrow=classic;endFill=1;startFill=1;html=1;rounded=0;edgeStyle=orthogonalEdgeStyle;fontSize=14;" parent="1" source="DEsD6xPvK2tIraXB0Mm6-26" target="DEsD6xPvK2tIraXB0Mm6-40" edge="1">
          <mxGeometry width="160" relative="1" as="geometry">
            <mxPoint x="1310" y="1210" as="sourcePoint" />
            <mxPoint x="1470" y="1210" as="targetPoint" />
            <Array as="points">
              <mxPoint x="1320" y="1720" />
              <mxPoint x="2360" y="1720" />
            </Array>
          </mxGeometry>
        </mxCell>
        <mxCell id="DEsD6xPvK2tIraXB0Mm6-47" value="" style="group;fontSize=14;" parent="1" vertex="1" connectable="0">
          <mxGeometry x="1780" y="1530" width="250" height="317.5" as="geometry" />
        </mxCell>
        <mxCell id="DEsD6xPvK2tIraXB0Mm6-48" value="" style="group;fontSize=14;" parent="DEsD6xPvK2tIraXB0Mm6-47" vertex="1" connectable="0">
          <mxGeometry width="250" height="317.5" as="geometry" />
        </mxCell>
        <mxCell id="DEsD6xPvK2tIraXB0Mm6-49" value="" style="verticalAlign=top;align=left;spacingTop=8;spacingLeft=2;spacingRight=12;shape=cube;size=10;direction=south;fontStyle=4;html=1;whiteSpace=wrap;fontSize=14;" parent="DEsD6xPvK2tIraXB0Mm6-48" vertex="1">
          <mxGeometry x="10" y="-28.22222222222222" width="170" height="181.42857142857142" as="geometry" />
        </mxCell>
        <mxCell id="DEsD6xPvK2tIraXB0Mm6-50" value="&lt;font&gt;&lt;u&gt;Docker 27.1.1 /&lt;/u&gt;&lt;/font&gt;&lt;div&gt;&lt;font&gt;&lt;u&gt;&amp;nbsp;Alpine Linux v3.21&lt;/u&gt;&lt;/font&gt;&lt;/div&gt;" style="text;html=1;align=center;verticalAlign=middle;resizable=0;points=[];autosize=1;strokeColor=none;fillColor=none;fontSize=14;" parent="DEsD6xPvK2tIraXB0Mm6-48" vertex="1">
          <mxGeometry x="20" y="-26.142857142857142" width="140" height="50" as="geometry" />
        </mxCell>
        <mxCell id="DEsD6xPvK2tIraXB0Mm6-51" value="" style="verticalAlign=top;align=left;spacingTop=8;spacingLeft=2;spacingRight=12;shape=cube;size=10;direction=south;fontStyle=4;html=1;whiteSpace=wrap;fontSize=14;" parent="DEsD6xPvK2tIraXB0Mm6-48" vertex="1">
          <mxGeometry x="18.75" y="22.174603174603174" width="142.5" height="120.95238095238095" as="geometry" />
        </mxCell>
        <mxCell id="DEsD6xPvK2tIraXB0Mm6-52" value="&lt;font&gt;Service service&lt;/font&gt;" style="text;html=1;align=center;verticalAlign=middle;resizable=0;points=[];autosize=1;strokeColor=none;fillColor=none;fontSize=14;" parent="DEsD6xPvK2tIraXB0Mm6-48" vertex="1">
          <mxGeometry x="20" y="32.25396825396825" width="120" height="30" as="geometry" />
        </mxCell>
        <mxCell id="DEsD6xPvK2tIraXB0Mm6-53" value="" style="shape=module;align=left;spacingLeft=20;align=center;verticalAlign=top;whiteSpace=wrap;html=1;fontSize=14;" parent="DEsD6xPvK2tIraXB0Mm6-48" vertex="1">
          <mxGeometry x="20" y="82.65" width="120" height="50.4" as="geometry" />
        </mxCell>
        <mxCell id="DEsD6xPvK2tIraXB0Mm6-54" value="&lt;font&gt;Golang 1.23.3&lt;/font&gt;" style="text;html=1;align=center;verticalAlign=middle;resizable=0;points=[];autosize=1;strokeColor=none;fillColor=none;fontSize=14;" parent="DEsD6xPvK2tIraXB0Mm6-48" vertex="1">
          <mxGeometry x="35" y="92.73015873015873" width="110" height="30" as="geometry" />
        </mxCell>
        <mxCell id="DEsD6xPvK2tIraXB0Mm6-56" value="" style="group;fontSize=14;" parent="1" vertex="1" connectable="0">
          <mxGeometry x="1600" y="339" width="240" height="190" as="geometry" />
        </mxCell>
        <mxCell id="DEsD6xPvK2tIraXB0Mm6-57" value="" style="group;fontSize=14;" parent="DEsD6xPvK2tIraXB0Mm6-56" vertex="1" connectable="0">
          <mxGeometry y="10" width="170" height="180" as="geometry" />
        </mxCell>
        <mxCell id="DEsD6xPvK2tIraXB0Mm6-58" value="" style="verticalAlign=top;align=left;spacingTop=8;spacingLeft=2;spacingRight=12;shape=cube;size=10;direction=south;fontStyle=4;html=1;whiteSpace=wrap;fontSize=14;" parent="DEsD6xPvK2tIraXB0Mm6-57" vertex="1">
          <mxGeometry width="170" height="180" as="geometry" />
        </mxCell>
        <mxCell id="DEsD6xPvK2tIraXB0Mm6-59" value="&lt;font&gt;&lt;u&gt;Docker 27.1.1 /&lt;/u&gt;&lt;/font&gt;&lt;div&gt;&lt;font&gt;&lt;u&gt;&amp;nbsp;Alpine Linux v3.21&lt;/u&gt;&lt;/font&gt;&lt;/div&gt;" style="text;html=1;align=center;verticalAlign=middle;resizable=0;points=[];autosize=1;strokeColor=none;fillColor=none;fontSize=14;" parent="DEsD6xPvK2tIraXB0Mm6-57" vertex="1">
          <mxGeometry x="10" y="2" width="140" height="50" as="geometry" />
        </mxCell>
        <mxCell id="DEsD6xPvK2tIraXB0Mm6-60" value="" style="verticalAlign=top;align=left;spacingTop=8;spacingLeft=2;spacingRight=12;shape=cube;size=10;direction=south;fontStyle=4;html=1;whiteSpace=wrap;fontSize=14;" parent="DEsD6xPvK2tIraXB0Mm6-57" vertex="1">
          <mxGeometry x="8.75" y="50" width="142.5" height="120" as="geometry" />
        </mxCell>
        <mxCell id="DEsD6xPvK2tIraXB0Mm6-61" value="&lt;font&gt;Coach service&lt;/font&gt;" style="text;html=1;align=center;verticalAlign=middle;resizable=0;points=[];autosize=1;strokeColor=none;fillColor=none;fontSize=14;" parent="DEsD6xPvK2tIraXB0Mm6-57" vertex="1">
          <mxGeometry x="15" y="60" width="110" height="30" as="geometry" />
        </mxCell>
        <mxCell id="DEsD6xPvK2tIraXB0Mm6-62" value="" style="shape=module;align=left;spacingLeft=20;align=center;verticalAlign=top;whiteSpace=wrap;html=1;fontSize=14;" parent="DEsD6xPvK2tIraXB0Mm6-57" vertex="1">
          <mxGeometry x="10" y="110" width="120" height="50" as="geometry" />
        </mxCell>
        <mxCell id="DEsD6xPvK2tIraXB0Mm6-63" value="&lt;font&gt;Golang 1.23.3&lt;/font&gt;" style="text;html=1;align=center;verticalAlign=middle;resizable=0;points=[];autosize=1;strokeColor=none;fillColor=none;fontSize=14;" parent="DEsD6xPvK2tIraXB0Mm6-57" vertex="1">
          <mxGeometry x="25" y="120" width="110" height="30" as="geometry" />
        </mxCell>
        <mxCell id="DEsD6xPvK2tIraXB0Mm6-65" value="" style="group;fontSize=14;" parent="1" vertex="1" connectable="0">
          <mxGeometry x="2665" y="359" width="230" height="180" as="geometry" />
        </mxCell>
        <mxCell id="DEsD6xPvK2tIraXB0Mm6-66" value="" style="group;fontSize=14;" parent="DEsD6xPvK2tIraXB0Mm6-65" vertex="1" connectable="0">
          <mxGeometry x="20" width="200" height="180" as="geometry" />
        </mxCell>
        <mxCell id="DEsD6xPvK2tIraXB0Mm6-67" value="" style="verticalAlign=top;align=left;spacingTop=8;spacingLeft=2;spacingRight=12;shape=cube;size=10;direction=south;fontStyle=4;html=1;whiteSpace=wrap;fontSize=14;" parent="DEsD6xPvK2tIraXB0Mm6-66" vertex="1">
          <mxGeometry width="170" height="180" as="geometry" />
        </mxCell>
        <mxCell id="DEsD6xPvK2tIraXB0Mm6-68" value="&lt;font&gt;&lt;u&gt;Docker 27.1.1 /&lt;/u&gt;&lt;/font&gt;&lt;div&gt;&lt;font&gt;&lt;u&gt;&amp;nbsp;Alpine Linux v3.21&lt;/u&gt;&lt;/font&gt;&lt;/div&gt;" style="text;html=1;align=center;verticalAlign=middle;resizable=0;points=[];autosize=1;strokeColor=none;fillColor=none;fontSize=14;" parent="DEsD6xPvK2tIraXB0Mm6-66" vertex="1">
          <mxGeometry x="10" y="4" width="140" height="50" as="geometry" />
        </mxCell>
        <mxCell id="DEsD6xPvK2tIraXB0Mm6-69" value="" style="verticalAlign=top;align=left;spacingTop=8;spacingLeft=2;spacingRight=12;shape=cube;size=10;direction=south;fontStyle=4;html=1;whiteSpace=wrap;fontSize=14;" parent="DEsD6xPvK2tIraXB0Mm6-66" vertex="1">
          <mxGeometry x="8.75" y="50" width="142.5" height="120" as="geometry" />
        </mxCell>
        <mxCell id="DEsD6xPvK2tIraXB0Mm6-70" value="&lt;font&gt;Review service&lt;/font&gt;" style="text;html=1;align=center;verticalAlign=middle;resizable=0;points=[];autosize=1;strokeColor=none;fillColor=none;fontSize=14;" parent="DEsD6xPvK2tIraXB0Mm6-66" vertex="1">
          <mxGeometry x="10" y="60" width="120" height="30" as="geometry" />
        </mxCell>
        <mxCell id="DEsD6xPvK2tIraXB0Mm6-71" value="" style="shape=module;align=left;spacingLeft=20;align=center;verticalAlign=top;whiteSpace=wrap;html=1;fontSize=14;" parent="DEsD6xPvK2tIraXB0Mm6-66" vertex="1">
          <mxGeometry x="10" y="110" width="120" height="50" as="geometry" />
        </mxCell>
        <mxCell id="DEsD6xPvK2tIraXB0Mm6-72" value="&lt;font&gt;Golang 1.23.3&lt;/font&gt;" style="text;html=1;align=center;verticalAlign=middle;resizable=0;points=[];autosize=1;strokeColor=none;fillColor=none;fontSize=14;" parent="DEsD6xPvK2tIraXB0Mm6-66" vertex="1">
          <mxGeometry x="25" y="120" width="110" height="30" as="geometry" />
        </mxCell>
        <mxCell id="DEsD6xPvK2tIraXB0Mm6-74" value="" style="group;fontSize=14;" parent="1" vertex="1" connectable="0">
          <mxGeometry x="2463" y="1030" width="217" height="190" as="geometry" />
        </mxCell>
        <mxCell id="DEsD6xPvK2tIraXB0Mm6-75" value="" style="group;fontSize=14;" parent="DEsD6xPvK2tIraXB0Mm6-74" vertex="1" connectable="0">
          <mxGeometry width="200" height="190" as="geometry" />
        </mxCell>
        <mxCell id="DEsD6xPvK2tIraXB0Mm6-76" value="" style="verticalAlign=top;align=left;spacingTop=8;spacingLeft=2;spacingRight=12;shape=cube;size=10;direction=south;fontStyle=4;html=1;whiteSpace=wrap;fontSize=14;" parent="DEsD6xPvK2tIraXB0Mm6-75" vertex="1">
          <mxGeometry width="170" height="190" as="geometry" />
        </mxCell>
        <mxCell id="DEsD6xPvK2tIraXB0Mm6-77" value="&lt;font&gt;&lt;u&gt;Docker 27.1.1 /&lt;/u&gt;&lt;/font&gt;&lt;div&gt;&lt;font&gt;&lt;u&gt;&amp;nbsp;Alpine Linux v3.21&lt;/u&gt;&lt;/font&gt;&lt;/div&gt;" style="text;html=1;align=center;verticalAlign=middle;resizable=0;points=[];autosize=1;strokeColor=none;fillColor=none;fontSize=14;" parent="DEsD6xPvK2tIraXB0Mm6-75" vertex="1">
          <mxGeometry x="10" y="2" width="140" height="50" as="geometry" />
        </mxCell>
        <mxCell id="DEsD6xPvK2tIraXB0Mm6-78" value="" style="verticalAlign=top;align=left;spacingTop=8;spacingLeft=2;spacingRight=12;shape=cube;size=10;direction=south;fontStyle=4;html=1;whiteSpace=wrap;fontSize=14;" parent="DEsD6xPvK2tIraXB0Mm6-75" vertex="1">
          <mxGeometry x="8.75" y="52.77777777777778" width="142.5" height="126.66666666666667" as="geometry" />
        </mxCell>
        <mxCell id="DEsD6xPvK2tIraXB0Mm6-79" value="&lt;font&gt;SSO service&lt;/font&gt;" style="text;html=1;align=center;verticalAlign=middle;resizable=0;points=[];autosize=1;strokeColor=none;fillColor=none;fontSize=14;" parent="DEsD6xPvK2tIraXB0Mm6-75" vertex="1">
          <mxGeometry x="20" y="63.333333333333336" width="100" height="30" as="geometry" />
        </mxCell>
        <mxCell id="DEsD6xPvK2tIraXB0Mm6-80" value="" style="shape=module;align=left;spacingLeft=20;align=center;verticalAlign=top;whiteSpace=wrap;html=1;fontSize=14;" parent="DEsD6xPvK2tIraXB0Mm6-75" vertex="1">
          <mxGeometry x="10" y="116.11" width="120" height="52.78" as="geometry" />
        </mxCell>
        <mxCell id="DEsD6xPvK2tIraXB0Mm6-81" value="&lt;font&gt;Golang 1.23.3&lt;/font&gt;" style="text;html=1;align=center;verticalAlign=middle;resizable=0;points=[];autosize=1;strokeColor=none;fillColor=none;fontSize=14;" parent="DEsD6xPvK2tIraXB0Mm6-75" vertex="1">
          <mxGeometry x="25" y="126.66666666666667" width="110" height="30" as="geometry" />
        </mxCell>
        <mxCell id="DEsD6xPvK2tIraXB0Mm6-95" value="" style="endArrow=classic;startArrow=classic;html=1;rounded=0;edgeStyle=orthogonalEdgeStyle;fontSize=14;" parent="1" source="DEsD6xPvK2tIraXB0Mm6-26" target="DEsD6xPvK2tIraXB0Mm6-58" edge="1">
          <mxGeometry width="50" height="50" relative="1" as="geometry">
            <mxPoint x="720" y="1300" as="sourcePoint" />
            <mxPoint x="1600" y="540" as="targetPoint" />
            <Array as="points">
              <mxPoint x="1320" y="380" />
            </Array>
          </mxGeometry>
        </mxCell>
        <mxCell id="DEsD6xPvK2tIraXB0Mm6-98" value="" style="endArrow=classic;startArrow=classic;html=1;rounded=0;edgeStyle=orthogonalEdgeStyle;exitX=0.671;exitY=0.002;exitDx=0;exitDy=0;exitPerimeter=0;fontSize=14;" parent="1" source="DEsD6xPvK2tIraXB0Mm6-114" target="DEsD6xPvK2tIraXB0Mm6-17" edge="1">
          <mxGeometry width="50" height="50" relative="1" as="geometry">
            <mxPoint x="3482" y="1399" as="sourcePoint" />
            <mxPoint x="3532" y="1349" as="targetPoint" />
            <Array as="points">
              <mxPoint x="3260" y="1340" />
              <mxPoint x="3260" y="1054" />
              <mxPoint x="3320" y="1054" />
            </Array>
          </mxGeometry>
        </mxCell>
        <mxCell id="DEsD6xPvK2tIraXB0Mm6-99" value="" style="endArrow=classic;startArrow=classic;html=1;rounded=0;edgeStyle=orthogonalEdgeStyle;exitX=1;exitY=0.115;exitDx=0;exitDy=0;exitPerimeter=0;fontSize=14;" parent="1" source="nyr0VhtFXws825Zi8dbS-15" target="DEsD6xPvK2tIraXB0Mm6-11" edge="1">
          <mxGeometry width="50" height="50" relative="1" as="geometry">
            <mxPoint x="3080" y="1820" as="sourcePoint" />
            <mxPoint x="3348" y="1880" as="targetPoint" />
            <Array as="points">
              <mxPoint x="3081" y="2010" />
              <mxPoint x="3081" y="2010" />
            </Array>
          </mxGeometry>
        </mxCell>
        <mxCell id="DEsD6xPvK2tIraXB0Mm6-103" value="" style="group;fontSize=14;" parent="1" vertex="1" connectable="0">
          <mxGeometry x="2068" y="860" width="230" height="176" as="geometry" />
        </mxCell>
        <mxCell id="DEsD6xPvK2tIraXB0Mm6-105" value="" style="group;fontSize=14;" parent="DEsD6xPvK2tIraXB0Mm6-103" vertex="1" connectable="0">
          <mxGeometry y="25.142857142857142" width="200" height="150.85714285714286" as="geometry" />
        </mxCell>
        <mxCell id="DEsD6xPvK2tIraXB0Mm6-106" value="" style="verticalAlign=top;align=left;spacingTop=8;spacingLeft=2;spacingRight=12;shape=cube;size=10;direction=south;fontStyle=4;html=1;whiteSpace=wrap;fontSize=14;" parent="DEsD6xPvK2tIraXB0Mm6-105" vertex="1">
          <mxGeometry width="170" height="150.85714285714286" as="geometry" />
        </mxCell>
        <mxCell id="DEsD6xPvK2tIraXB0Mm6-107" value="&lt;font&gt;&lt;u&gt;Docker 27.1.1 /&lt;br&gt;&amp;nbsp;Debian GNU/&lt;/u&gt;&lt;/font&gt;&lt;div&gt;&lt;font&gt;&lt;u&gt;Linux 12 (bookworm)&lt;br&gt;Database Server&lt;/u&gt;&lt;/font&gt;&lt;/div&gt;" style="text;html=1;align=center;verticalAlign=middle;resizable=0;points=[];autosize=1;strokeColor=none;fillColor=none;fontSize=14;" parent="DEsD6xPvK2tIraXB0Mm6-105" vertex="1">
          <mxGeometry x="5" y="3.0004761904761903" width="150" height="80" as="geometry" />
        </mxCell>
        <mxCell id="nyr0VhtFXws825Zi8dbS-2" value="" style="shape=cylinder3;whiteSpace=wrap;html=1;boundedLbl=1;backgroundOutline=1;size=15;fontSize=14;" parent="DEsD6xPvK2tIraXB0Mm6-105" vertex="1">
          <mxGeometry x="20" y="79.39999999999999" width="130" height="58.66666666666667" as="geometry" />
        </mxCell>
        <mxCell id="nyr0VhtFXws825Zi8dbS-3" value="&lt;font&gt;PostgreSQL 17&lt;/font&gt;" style="text;html=1;align=center;verticalAlign=middle;resizable=0;points=[];autosize=1;strokeColor=none;fillColor=none;fontSize=14;" parent="DEsD6xPvK2tIraXB0Mm6-105" vertex="1">
          <mxGeometry x="25" y="104.54285714285714" width="120" height="30" as="geometry" />
        </mxCell>
        <mxCell id="DEsD6xPvK2tIraXB0Mm6-127" value="" style="endArrow=classic;html=1;rounded=0;edgeStyle=orthogonalEdgeStyle;fontSize=14;" parent="1" source="DEsD6xPvK2tIraXB0Mm6-67" target="DEsD6xPvK2tIraXB0Mm6-121" edge="1">
          <mxGeometry width="50" height="50" relative="1" as="geometry">
            <mxPoint x="2150" y="1059" as="sourcePoint" />
            <mxPoint x="2200" y="1009" as="targetPoint" />
            <Array as="points">
              <mxPoint x="2510" y="490" />
            </Array>
          </mxGeometry>
        </mxCell>
        <mxCell id="DEsD6xPvK2tIraXB0Mm6-130" value="" style="endArrow=classic;html=1;rounded=0;edgeStyle=orthogonalEdgeStyle;fontSize=14;" parent="1" source="DEsD6xPvK2tIraXB0Mm6-40" target="DEsD6xPvK2tIraXB0Mm6-121" edge="1">
          <mxGeometry width="50" height="50" relative="1" as="geometry">
            <mxPoint x="1850" y="1230" as="sourcePoint" />
            <mxPoint x="1900" y="1180" as="targetPoint" />
            <Array as="points">
              <mxPoint x="2420" y="1090" />
              <mxPoint x="2420" y="1090" />
            </Array>
          </mxGeometry>
        </mxCell>
        <mxCell id="DEsD6xPvK2tIraXB0Mm6-131" value="" style="endArrow=classic;html=1;rounded=0;edgeStyle=orthogonalEdgeStyle;fontSize=14;startArrow=classic;startFill=1;" parent="1" source="DEsD6xPvK2tIraXB0Mm6-76" target="DEsD6xPvK2tIraXB0Mm6-121" edge="1">
          <mxGeometry width="50" height="50" relative="1" as="geometry">
            <mxPoint x="2080" y="970" as="sourcePoint" />
            <mxPoint x="2130" y="920" as="targetPoint" />
            <Array as="points">
              <mxPoint x="2510" y="880" />
              <mxPoint x="2510" y="880" />
            </Array>
          </mxGeometry>
        </mxCell>
        <mxCell id="DEsD6xPvK2tIraXB0Mm6-135" value="" style="endArrow=classic;html=1;rounded=0;edgeStyle=orthogonalEdgeStyle;startArrow=classic;startFill=1;fontSize=14;" parent="1" source="DEsD6xPvK2tIraXB0Mm6-32" target="DEsD6xPvK2tIraXB0Mm6-106" edge="1">
          <mxGeometry width="50" height="50" relative="1" as="geometry">
            <mxPoint x="2760" y="1190" as="sourcePoint" />
            <mxPoint x="2810" y="1140" as="targetPoint" />
            <Array as="points">
              <mxPoint x="2000" y="1000" />
            </Array>
          </mxGeometry>
        </mxCell>
        <mxCell id="DEsD6xPvK2tIraXB0Mm6-137" value="" style="group;fontSize=14;" parent="1" vertex="1" connectable="0">
          <mxGeometry x="2380" y="559" width="200" height="180" as="geometry" />
        </mxCell>
        <mxCell id="DEsD6xPvK2tIraXB0Mm6-121" value="" style="verticalAlign=top;align=left;spacingTop=8;spacingLeft=2;spacingRight=12;shape=cube;size=10;direction=south;fontStyle=4;html=1;whiteSpace=wrap;fontSize=14;" parent="DEsD6xPvK2tIraXB0Mm6-137" vertex="1">
          <mxGeometry width="170" height="180" as="geometry" />
        </mxCell>
        <mxCell id="DEsD6xPvK2tIraXB0Mm6-122" value="&lt;font&gt;&lt;u&gt;Docker 27.1.1 /&lt;/u&gt;&lt;/font&gt;&lt;div&gt;&lt;font&gt;&lt;u&gt;&amp;nbsp;Alpine Linux v3.21&lt;/u&gt;&lt;/font&gt;&lt;/div&gt;" style="text;html=1;align=center;verticalAlign=middle;resizable=0;points=[];autosize=1;strokeColor=none;fillColor=none;fontSize=14;" parent="DEsD6xPvK2tIraXB0Mm6-137" vertex="1">
          <mxGeometry x="10" y="3" width="140" height="50" as="geometry" />
        </mxCell>
        <mxCell id="DEsD6xPvK2tIraXB0Mm6-123" value="" style="verticalAlign=top;align=left;spacingTop=8;spacingLeft=2;spacingRight=12;shape=cube;size=10;direction=south;fontStyle=4;html=1;whiteSpace=wrap;fontSize=14;" parent="DEsD6xPvK2tIraXB0Mm6-137" vertex="1">
          <mxGeometry x="8.75" y="50" width="142.5" height="120" as="geometry" />
        </mxCell>
        <mxCell id="DEsD6xPvK2tIraXB0Mm6-124" value="&lt;font&gt;User service&lt;/font&gt;" style="text;html=1;align=center;verticalAlign=middle;resizable=0;points=[];autosize=1;strokeColor=none;fillColor=none;fontSize=14;" parent="DEsD6xPvK2tIraXB0Mm6-137" vertex="1">
          <mxGeometry x="20" y="60" width="100" height="30" as="geometry" />
        </mxCell>
        <mxCell id="DEsD6xPvK2tIraXB0Mm6-125" value="" style="shape=module;align=left;spacingLeft=20;align=center;verticalAlign=top;whiteSpace=wrap;html=1;fontSize=14;" parent="DEsD6xPvK2tIraXB0Mm6-137" vertex="1">
          <mxGeometry x="10" y="110" width="120" height="50" as="geometry" />
        </mxCell>
        <mxCell id="DEsD6xPvK2tIraXB0Mm6-126" value="&lt;font&gt;Golang 1.23.3&lt;/font&gt;" style="text;html=1;align=center;verticalAlign=middle;resizable=0;points=[];autosize=1;strokeColor=none;fillColor=none;fontSize=14;" parent="DEsD6xPvK2tIraXB0Mm6-137" vertex="1">
          <mxGeometry x="25" y="120" width="110" height="30" as="geometry" />
        </mxCell>
        <mxCell id="DEsD6xPvK2tIraXB0Mm6-139" style="edgeStyle=orthogonalEdgeStyle;rounded=0;orthogonalLoop=1;jettySize=auto;html=1;startArrow=classic;startFill=1;fontSize=14;" parent="1" source="DEsD6xPvK2tIraXB0Mm6-58" target="DEsD6xPvK2tIraXB0Mm6-67" edge="1">
          <mxGeometry relative="1" as="geometry">
            <Array as="points">
              <mxPoint x="2230" y="383" />
              <mxPoint x="2230" y="383" />
            </Array>
          </mxGeometry>
        </mxCell>
        <mxCell id="DEsD6xPvK2tIraXB0Mm6-141" style="edgeStyle=orthogonalEdgeStyle;rounded=0;orthogonalLoop=1;jettySize=auto;html=1;startArrow=classic;startFill=1;fontSize=14;" parent="1" source="DEsD6xPvK2tIraXB0Mm6-26" target="DEsD6xPvK2tIraXB0Mm6-121" edge="1">
          <mxGeometry relative="1" as="geometry">
            <Array as="points">
              <mxPoint x="1410" y="600" />
            </Array>
          </mxGeometry>
        </mxCell>
        <mxCell id="DEsD6xPvK2tIraXB0Mm6-142" style="edgeStyle=orthogonalEdgeStyle;rounded=0;orthogonalLoop=1;jettySize=auto;html=1;startArrow=classic;startFill=1;fontSize=14;" parent="1" source="DEsD6xPvK2tIraXB0Mm6-26" target="DEsD6xPvK2tIraXB0Mm6-49" edge="1">
          <mxGeometry relative="1" as="geometry">
            <Array as="points">
              <mxPoint x="1410" y="1650" />
            </Array>
          </mxGeometry>
        </mxCell>
        <mxCell id="DEsD6xPvK2tIraXB0Mm6-143" style="edgeStyle=orthogonalEdgeStyle;rounded=0;orthogonalLoop=1;jettySize=auto;html=1;startArrow=classic;startFill=1;fontSize=14;" parent="1" source="DEsD6xPvK2tIraXB0Mm6-58" target="DEsD6xPvK2tIraXB0Mm6-49" edge="1">
          <mxGeometry relative="1" as="geometry">
            <Array as="points">
              <mxPoint x="1500" y="490" />
              <mxPoint x="1500" y="1595" />
            </Array>
          </mxGeometry>
        </mxCell>
        <mxCell id="DEsD6xPvK2tIraXB0Mm6-144" style="edgeStyle=orthogonalEdgeStyle;rounded=0;orthogonalLoop=1;jettySize=auto;html=1;startArrow=classic;startFill=1;fontSize=14;" parent="1" source="DEsD6xPvK2tIraXB0Mm6-49" target="DEsD6xPvK2tIraXB0Mm6-85" edge="1">
          <mxGeometry relative="1" as="geometry">
            <mxPoint x="1680" y="1420" as="targetPoint" />
            <Array as="points">
              <mxPoint x="1560" y="1540" />
              <mxPoint x="1560" y="870" />
            </Array>
          </mxGeometry>
        </mxCell>
        <mxCell id="DEsD6xPvK2tIraXB0Mm6-145" style="edgeStyle=orthogonalEdgeStyle;rounded=0;orthogonalLoop=1;jettySize=auto;html=1;startArrow=classic;startFill=1;fontSize=14;" parent="1" source="DEsD6xPvK2tIraXB0Mm6-49" target="DEsD6xPvK2tIraXB0Mm6-40" edge="1">
          <mxGeometry relative="1" as="geometry">
            <Array as="points">
              <mxPoint x="2280" y="1630" />
              <mxPoint x="2280" y="1630" />
            </Array>
          </mxGeometry>
        </mxCell>
        <mxCell id="DEsD6xPvK2tIraXB0Mm6-147" style="edgeStyle=orthogonalEdgeStyle;rounded=0;orthogonalLoop=1;jettySize=auto;html=1;fontSize=14;" parent="1" source="DEsD6xPvK2tIraXB0Mm6-85" target="DEsD6xPvK2tIraXB0Mm6-40" edge="1">
          <mxGeometry relative="1" as="geometry">
            <Array as="points">
              <mxPoint x="1660" y="1760" />
              <mxPoint x="2405" y="1760" />
            </Array>
          </mxGeometry>
        </mxCell>
        <mxCell id="DEsD6xPvK2tIraXB0Mm6-148" style="edgeStyle=orthogonalEdgeStyle;rounded=0;orthogonalLoop=1;jettySize=auto;html=1;startArrow=classic;startFill=1;fontSize=14;" parent="1" source="DEsD6xPvK2tIraXB0Mm6-85" target="DEsD6xPvK2tIraXB0Mm6-121" edge="1">
          <mxGeometry relative="1" as="geometry">
            <Array as="points">
              <mxPoint x="1705" y="649" />
            </Array>
          </mxGeometry>
        </mxCell>
        <mxCell id="DEsD6xPvK2tIraXB0Mm6-149" style="edgeStyle=orthogonalEdgeStyle;rounded=0;orthogonalLoop=1;jettySize=auto;html=1;startArrow=classic;startFill=1;fontSize=14;" parent="1" source="DEsD6xPvK2tIraXB0Mm6-58" target="DEsD6xPvK2tIraXB0Mm6-121" edge="1">
          <mxGeometry relative="1" as="geometry">
            <Array as="points">
              <mxPoint x="2420" y="490" />
            </Array>
          </mxGeometry>
        </mxCell>
        <mxCell id="DEsD6xPvK2tIraXB0Mm6-151" style="edgeStyle=orthogonalEdgeStyle;rounded=0;orthogonalLoop=1;jettySize=auto;html=1;startArrow=classic;startFill=1;fontSize=14;" parent="1" source="DEsD6xPvK2tIraXB0Mm6-106" target="DEsD6xPvK2tIraXB0Mm6-58" edge="1">
          <mxGeometry relative="1" as="geometry">
            <Array as="points">
              <mxPoint x="2120" y="440" />
            </Array>
          </mxGeometry>
        </mxCell>
        <mxCell id="DEsD6xPvK2tIraXB0Mm6-153" style="edgeStyle=orthogonalEdgeStyle;rounded=0;orthogonalLoop=1;jettySize=auto;html=1;startArrow=classic;startFill=1;fontSize=14;" parent="1" source="DEsD6xPvK2tIraXB0Mm6-106" target="DEsD6xPvK2tIraXB0Mm6-67" edge="1">
          <mxGeometry relative="1" as="geometry">
            <mxPoint x="2620" y="780" as="targetPoint" />
            <Array as="points">
              <mxPoint x="2760" y="940" />
            </Array>
          </mxGeometry>
        </mxCell>
        <mxCell id="DEsD6xPvK2tIraXB0Mm6-154" style="edgeStyle=orthogonalEdgeStyle;rounded=0;orthogonalLoop=1;jettySize=auto;html=1;startArrow=classic;startFill=1;fontSize=14;" parent="1" source="DEsD6xPvK2tIraXB0Mm6-106" target="DEsD6xPvK2tIraXB0Mm6-121" edge="1">
          <mxGeometry relative="1" as="geometry">
            <Array as="points">
              <mxPoint x="2190" y="700" />
            </Array>
          </mxGeometry>
        </mxCell>
        <mxCell id="DEsD6xPvK2tIraXB0Mm6-39" value="" style="group;fontSize=14;" parent="1" vertex="1" connectable="0">
          <mxGeometry x="2320" y="1480" width="200" height="180" as="geometry" />
        </mxCell>
        <mxCell id="DEsD6xPvK2tIraXB0Mm6-40" value="" style="verticalAlign=top;align=left;spacingTop=8;spacingLeft=2;spacingRight=12;shape=cube;size=10;direction=south;fontStyle=4;html=1;whiteSpace=wrap;fontSize=14;" parent="DEsD6xPvK2tIraXB0Mm6-39" vertex="1">
          <mxGeometry width="170" height="180" as="geometry" />
        </mxCell>
        <mxCell id="DEsD6xPvK2tIraXB0Mm6-41" value="&lt;font&gt;&lt;u&gt;Docker 27.1.1 /&lt;/u&gt;&lt;/font&gt;&lt;div&gt;&lt;font&gt;&lt;u&gt;&amp;nbsp;Alpine Linux v3.21&lt;/u&gt;&lt;/font&gt;&lt;/div&gt;" style="text;html=1;align=center;verticalAlign=middle;resizable=0;points=[];autosize=1;strokeColor=none;fillColor=none;fontSize=14;" parent="DEsD6xPvK2tIraXB0Mm6-39" vertex="1">
          <mxGeometry x="10" y="3" width="140" height="50" as="geometry" />
        </mxCell>
        <mxCell id="DEsD6xPvK2tIraXB0Mm6-42" value="" style="verticalAlign=top;align=left;spacingTop=8;spacingLeft=2;spacingRight=12;shape=cube;size=10;direction=south;fontStyle=4;html=1;whiteSpace=wrap;fontSize=14;" parent="DEsD6xPvK2tIraXB0Mm6-39" vertex="1">
          <mxGeometry x="8.75" y="50" width="142.5" height="120" as="geometry" />
        </mxCell>
        <mxCell id="DEsD6xPvK2tIraXB0Mm6-43" value="&lt;font&gt;Abonement service&lt;/font&gt;" style="text;html=1;align=center;verticalAlign=middle;resizable=0;points=[];autosize=1;strokeColor=none;fillColor=none;fontSize=14;" parent="DEsD6xPvK2tIraXB0Mm6-39" vertex="1">
          <mxGeometry y="60" width="140" height="30" as="geometry" />
        </mxCell>
        <mxCell id="DEsD6xPvK2tIraXB0Mm6-44" value="" style="shape=module;align=left;spacingLeft=20;align=center;verticalAlign=top;whiteSpace=wrap;html=1;fontSize=14;" parent="DEsD6xPvK2tIraXB0Mm6-39" vertex="1">
          <mxGeometry x="10" y="110" width="120" height="50" as="geometry" />
        </mxCell>
        <mxCell id="DEsD6xPvK2tIraXB0Mm6-45" value="&lt;font&gt;Golang 1.23.3&lt;/font&gt;" style="text;html=1;align=center;verticalAlign=middle;resizable=0;points=[];autosize=1;strokeColor=none;fillColor=none;fontSize=14;" parent="DEsD6xPvK2tIraXB0Mm6-39" vertex="1">
          <mxGeometry x="25" y="120" width="110" height="30" as="geometry" />
        </mxCell>
        <mxCell id="DEsD6xPvK2tIraXB0Mm6-156" style="edgeStyle=orthogonalEdgeStyle;rounded=0;orthogonalLoop=1;jettySize=auto;html=1;startArrow=classic;startFill=1;fontSize=14;" parent="1" source="DEsD6xPvK2tIraXB0Mm6-106" target="DEsD6xPvK2tIraXB0Mm6-76" edge="1">
          <mxGeometry relative="1" as="geometry">
            <Array as="points">
              <mxPoint x="2190" y="1130" />
            </Array>
          </mxGeometry>
        </mxCell>
        <mxCell id="DEsD6xPvK2tIraXB0Mm6-157" style="edgeStyle=orthogonalEdgeStyle;rounded=0;orthogonalLoop=1;jettySize=auto;html=1;startArrow=classic;startFill=1;fontSize=14;" parent="1" source="DEsD6xPvK2tIraXB0Mm6-106" target="DEsD6xPvK2tIraXB0Mm6-40" edge="1">
          <mxGeometry relative="1" as="geometry">
            <mxPoint x="2147.0000000000005" y="950.0000000000002" as="sourcePoint" />
            <mxPoint x="2148.9696969696975" y="2020" as="targetPoint" />
            <Array as="points">
              <mxPoint x="2120" y="1520" />
            </Array>
          </mxGeometry>
        </mxCell>
        <mxCell id="DEsD6xPvK2tIraXB0Mm6-158" style="edgeStyle=orthogonalEdgeStyle;rounded=0;orthogonalLoop=1;jettySize=auto;html=1;exitX=0.165;exitY=0.999;exitDx=0;exitDy=0;exitPerimeter=0;startArrow=classic;startFill=1;fontSize=14;" parent="1" source="DEsD6xPvK2tIraXB0Mm6-106" target="DEsD6xPvK2tIraXB0Mm6-85" edge="1">
          <mxGeometry relative="1" as="geometry">
            <Array as="points" />
          </mxGeometry>
        </mxCell>
        <mxCell id="DEsD6xPvK2tIraXB0Mm6-159" value="" style="group;fontSize=14;" parent="1" vertex="1" connectable="0">
          <mxGeometry x="1640" y="750" width="250" height="210" as="geometry" />
        </mxCell>
        <mxCell id="DEsD6xPvK2tIraXB0Mm6-84" value="" style="group;fontSize=14;" parent="DEsD6xPvK2tIraXB0Mm6-159" vertex="1" connectable="0">
          <mxGeometry x="-20" y="30" width="200" height="180" as="geometry" />
        </mxCell>
        <mxCell id="DEsD6xPvK2tIraXB0Mm6-85" value="" style="verticalAlign=top;align=left;spacingTop=8;spacingLeft=2;spacingRight=12;shape=cube;size=10;direction=south;fontStyle=4;html=1;whiteSpace=wrap;fontSize=14;" parent="DEsD6xPvK2tIraXB0Mm6-84" vertex="1">
          <mxGeometry width="170" height="180" as="geometry" />
        </mxCell>
        <mxCell id="DEsD6xPvK2tIraXB0Mm6-86" value="&lt;font&gt;&lt;u&gt;Docker 27.1.1 /&lt;/u&gt;&lt;/font&gt;&lt;div&gt;&lt;font&gt;&lt;u&gt;&amp;nbsp;Alpine Linux v3.21&lt;/u&gt;&lt;/font&gt;&lt;/div&gt;" style="text;html=1;align=center;verticalAlign=middle;resizable=0;points=[];autosize=1;strokeColor=none;fillColor=none;fontSize=14;" parent="DEsD6xPvK2tIraXB0Mm6-84" vertex="1">
          <mxGeometry x="10" y="4" width="140" height="50" as="geometry" />
        </mxCell>
        <mxCell id="DEsD6xPvK2tIraXB0Mm6-87" value="" style="verticalAlign=top;align=left;spacingTop=8;spacingLeft=2;spacingRight=12;shape=cube;size=10;direction=south;fontStyle=4;html=1;whiteSpace=wrap;fontSize=14;" parent="DEsD6xPvK2tIraXB0Mm6-84" vertex="1">
          <mxGeometry x="8.75" y="50" width="142.5" height="120" as="geometry" />
        </mxCell>
        <mxCell id="DEsD6xPvK2tIraXB0Mm6-88" value="&lt;font&gt;Order service&lt;/font&gt;" style="text;html=1;align=center;verticalAlign=middle;resizable=0;points=[];autosize=1;strokeColor=none;fillColor=none;fontSize=14;" parent="DEsD6xPvK2tIraXB0Mm6-84" vertex="1">
          <mxGeometry x="15" y="60" width="110" height="30" as="geometry" />
        </mxCell>
        <mxCell id="DEsD6xPvK2tIraXB0Mm6-89" value="" style="shape=module;align=left;spacingLeft=20;align=center;verticalAlign=top;whiteSpace=wrap;html=1;fontSize=14;" parent="DEsD6xPvK2tIraXB0Mm6-84" vertex="1">
          <mxGeometry x="10" y="100" width="120" height="60" as="geometry" />
        </mxCell>
        <mxCell id="DEsD6xPvK2tIraXB0Mm6-90" value="&lt;font&gt;Golang 1.23.3&lt;/font&gt;" style="text;html=1;align=center;verticalAlign=middle;resizable=0;points=[];autosize=1;strokeColor=none;fillColor=none;fontSize=14;" parent="DEsD6xPvK2tIraXB0Mm6-84" vertex="1">
          <mxGeometry x="25" y="115" width="110" height="30" as="geometry" />
        </mxCell>
        <mxCell id="DEsD6xPvK2tIraXB0Mm6-113" value="" style="group;fontSize=14;" parent="1" vertex="1" connectable="0">
          <mxGeometry x="2852" y="1219" width="200" height="180" as="geometry" />
        </mxCell>
        <mxCell id="DEsD6xPvK2tIraXB0Mm6-114" value="" style="verticalAlign=top;align=left;spacingTop=8;spacingLeft=2;spacingRight=12;shape=cube;size=10;direction=south;fontStyle=4;html=1;whiteSpace=wrap;fontSize=14;" parent="DEsD6xPvK2tIraXB0Mm6-113" vertex="1">
          <mxGeometry width="170" height="180" as="geometry" />
        </mxCell>
        <mxCell id="DEsD6xPvK2tIraXB0Mm6-115" value="&lt;font&gt;&lt;u&gt;Docker 27.1.1 /&lt;/u&gt;&lt;/font&gt;&lt;div&gt;&lt;font&gt;&lt;u&gt;&amp;nbsp;Alpine Linux v3.21&lt;/u&gt;&lt;/font&gt;&lt;/div&gt;" style="text;html=1;align=center;verticalAlign=middle;resizable=0;points=[];autosize=1;strokeColor=none;fillColor=none;fontSize=14;" parent="DEsD6xPvK2tIraXB0Mm6-113" vertex="1">
          <mxGeometry x="10" y="5" width="140" height="50" as="geometry" />
        </mxCell>
        <mxCell id="DEsD6xPvK2tIraXB0Mm6-116" value="" style="verticalAlign=top;align=left;spacingTop=8;spacingLeft=2;spacingRight=12;shape=cube;size=10;direction=south;fontStyle=4;html=1;whiteSpace=wrap;fontSize=14;" parent="DEsD6xPvK2tIraXB0Mm6-113" vertex="1">
          <mxGeometry x="8.75" y="50" width="142.5" height="120" as="geometry" />
        </mxCell>
        <mxCell id="DEsD6xPvK2tIraXB0Mm6-117" value="&lt;font&gt;Gateway service&lt;/font&gt;" style="text;html=1;align=center;verticalAlign=middle;resizable=0;points=[];autosize=1;strokeColor=none;fillColor=none;fontSize=14;" parent="DEsD6xPvK2tIraXB0Mm6-113" vertex="1">
          <mxGeometry x="5" y="60" width="130" height="30" as="geometry" />
        </mxCell>
        <mxCell id="DEsD6xPvK2tIraXB0Mm6-118" value="" style="shape=module;align=left;spacingLeft=20;align=center;verticalAlign=top;whiteSpace=wrap;html=1;fontSize=14;" parent="DEsD6xPvK2tIraXB0Mm6-113" vertex="1">
          <mxGeometry x="10" y="110" width="120" height="50" as="geometry" />
        </mxCell>
        <mxCell id="DEsD6xPvK2tIraXB0Mm6-119" value="&lt;font&gt;Golang 1.23.3&lt;/font&gt;" style="text;html=1;align=center;verticalAlign=middle;resizable=0;points=[];autosize=1;strokeColor=none;fillColor=none;fontSize=14;" parent="DEsD6xPvK2tIraXB0Mm6-113" vertex="1">
          <mxGeometry x="25" y="120" width="110" height="30" as="geometry" />
        </mxCell>
        <mxCell id="DEsD6xPvK2tIraXB0Mm6-167" style="edgeStyle=orthogonalEdgeStyle;rounded=0;orthogonalLoop=1;jettySize=auto;html=1;startArrow=classic;startFill=1;fontSize=14;" parent="1" source="DEsD6xPvK2tIraXB0Mm6-114" target="DEsD6xPvK2tIraXB0Mm6-2" edge="1">
          <mxGeometry relative="1" as="geometry">
            <Array as="points">
              <mxPoint x="3100" y="1360" />
            </Array>
          </mxGeometry>
        </mxCell>
        <mxCell id="DEsD6xPvK2tIraXB0Mm6-169" style="edgeStyle=orthogonalEdgeStyle;rounded=0;orthogonalLoop=1;jettySize=auto;html=1;startArrow=classic;startFill=1;fontSize=14;" parent="1" source="DEsD6xPvK2tIraXB0Mm6-106" target="DEsD6xPvK2tIraXB0Mm6-49" edge="1">
          <mxGeometry relative="1" as="geometry">
            <Array as="points">
              <mxPoint x="1840" y="940" />
            </Array>
          </mxGeometry>
        </mxCell>
        <mxCell id="nyr0VhtFXws825Zi8dbS-6" value="" style="endArrow=classic;html=1;rounded=0;exitX=0;exitY=0;exitDx=0;exitDy=55;exitPerimeter=0;entryX=0.185;entryY=0.001;entryDx=0;entryDy=0;entryPerimeter=0;edgeStyle=orthogonalEdgeStyle;startArrow=classic;startFill=1;fontSize=14;" parent="1" source="DEsD6xPvK2tIraXB0Mm6-17" target="DEsD6xPvK2tIraXB0Mm6-20" edge="1">
          <mxGeometry width="50" height="50" relative="1" as="geometry">
            <mxPoint x="3490" y="973" as="sourcePoint" />
            <mxPoint x="3540" y="923" as="targetPoint" />
          </mxGeometry>
        </mxCell>
        <mxCell id="nyr0VhtFXws825Zi8dbS-7" value="" style="endArrow=classic;html=1;rounded=0;exitX=0.305;exitY=-0.001;exitDx=0;exitDy=0;exitPerimeter=0;entryX=0.518;entryY=0.001;entryDx=0;entryDy=0;entryPerimeter=0;edgeStyle=orthogonalEdgeStyle;startArrow=classic;startFill=1;fontSize=14;" parent="1" source="DEsD6xPvK2tIraXB0Mm6-20" target="DEsD6xPvK2tIraXB0Mm6-114" edge="1">
          <mxGeometry width="50" height="50" relative="1" as="geometry">
            <mxPoint x="3375" y="1138.47" as="sourcePoint" />
            <mxPoint x="3110" y="1025.47" as="targetPoint" />
            <Array as="points">
              <mxPoint x="3220" y="920" />
              <mxPoint x="3220" y="1312" />
            </Array>
          </mxGeometry>
        </mxCell>
        <mxCell id="nyr0VhtFXws825Zi8dbS-8" value="" style="endArrow=classic;startArrow=classic;html=1;rounded=0;exitX=0.006;exitY=0.657;exitDx=0;exitDy=0;exitPerimeter=0;entryX=0;entryY=0;entryDx=85;entryDy=0;entryPerimeter=0;edgeStyle=orthogonalEdgeStyle;fontSize=14;" parent="1" source="DEsD6xPvK2tIraXB0Mm6-114" target="DEsD6xPvK2tIraXB0Mm6-67" edge="1">
          <mxGeometry width="50" height="50" relative="1" as="geometry">
            <mxPoint x="2920" y="1060" as="sourcePoint" />
            <mxPoint x="2930" y="740" as="targetPoint" />
            <Array as="points">
              <mxPoint x="2910" y="1219" />
              <mxPoint x="2910" y="444" />
            </Array>
          </mxGeometry>
        </mxCell>
        <mxCell id="nyr0VhtFXws825Zi8dbS-9" value="" style="endArrow=classic;startArrow=classic;html=1;rounded=0;entryX=0.337;entryY=0.998;entryDx=0;entryDy=0;entryPerimeter=0;exitX=0.215;exitY=-0.012;exitDx=0;exitDy=0;exitPerimeter=0;edgeStyle=orthogonalEdgeStyle;fontSize=14;" parent="1" source="DEsD6xPvK2tIraXB0Mm6-121" target="DEsD6xPvK2tIraXB0Mm6-114" edge="1">
          <mxGeometry width="50" height="50" relative="1" as="geometry">
            <mxPoint x="2670" y="900" as="sourcePoint" />
            <mxPoint x="2720" y="850" as="targetPoint" />
            <Array as="points">
              <mxPoint x="2800" y="598" />
              <mxPoint x="2800" y="1280" />
            </Array>
          </mxGeometry>
        </mxCell>
        <mxCell id="nyr0VhtFXws825Zi8dbS-11" value="" style="endArrow=classic;startArrow=classic;html=1;rounded=0;entryX=0.617;entryY=0.994;entryDx=0;entryDy=0;entryPerimeter=0;edgeStyle=orthogonalEdgeStyle;fontSize=14;" parent="1" target="DEsD6xPvK2tIraXB0Mm6-114" edge="1">
          <mxGeometry width="50" height="50" relative="1" as="geometry">
            <mxPoint x="2543" y="1220" as="sourcePoint" />
            <mxPoint x="2680" y="1140" as="targetPoint" />
            <Array as="points">
              <mxPoint x="2543" y="1250" />
              <mxPoint x="2743" y="1250" />
              <mxPoint x="2743" y="1330" />
            </Array>
          </mxGeometry>
        </mxCell>
        <mxCell id="nyr0VhtFXws825Zi8dbS-12" value="" style="endArrow=classic;startArrow=classic;html=1;rounded=0;entryX=0.889;entryY=1.004;entryDx=0;entryDy=0;entryPerimeter=0;exitX=0;exitY=0;exitDx=180;exitDy=90;exitPerimeter=0;edgeStyle=orthogonalEdgeStyle;fontSize=14;" parent="1" source="DEsD6xPvK2tIraXB0Mm6-85" target="DEsD6xPvK2tIraXB0Mm6-114" edge="1">
          <mxGeometry width="50" height="50" relative="1" as="geometry">
            <mxPoint x="2665" y="1430" as="sourcePoint" />
            <mxPoint x="2715" y="1380" as="targetPoint" />
          </mxGeometry>
        </mxCell>
        <mxCell id="nyr0VhtFXws825Zi8dbS-13" value="" style="endArrow=classic;startArrow=classic;html=1;rounded=0;entryX=0;entryY=0;entryDx=180;entryDy=90;entryPerimeter=0;exitX=0;exitY=0;exitDx=0;exitDy=80;exitPerimeter=0;edgeStyle=orthogonalEdgeStyle;fontSize=14;" parent="1" source="DEsD6xPvK2tIraXB0Mm6-49" target="DEsD6xPvK2tIraXB0Mm6-114" edge="1">
          <mxGeometry width="50" height="50" relative="1" as="geometry">
            <mxPoint x="2463" y="1430" as="sourcePoint" />
            <mxPoint x="2513" y="1380" as="targetPoint" />
          </mxGeometry>
        </mxCell>
        <mxCell id="nyr0VhtFXws825Zi8dbS-14" value="" style="endArrow=classic;startArrow=classic;html=1;rounded=0;entryX=0.99;entryY=0.22;entryDx=0;entryDy=0;entryPerimeter=0;exitX=0.203;exitY=0.008;exitDx=0;exitDy=0;exitPerimeter=0;edgeStyle=orthogonalEdgeStyle;fontSize=14;" parent="1" source="DEsD6xPvK2tIraXB0Mm6-40" target="DEsD6xPvK2tIraXB0Mm6-114" edge="1">
          <mxGeometry width="50" height="50" relative="1" as="geometry">
            <mxPoint x="2790" y="1540" as="sourcePoint" />
            <mxPoint x="2840" y="1490" as="targetPoint" />
          </mxGeometry>
        </mxCell>
        <mxCell id="nyr0VhtFXws825Zi8dbS-16" value="&lt;font&gt;Docker Compose v2.29.1/Ubuntu Server 20.04 LTS&lt;/font&gt;" style="text;html=1;align=center;verticalAlign=middle;resizable=0;points=[];autosize=1;strokeColor=none;fillColor=none;fontSize=14;" parent="1" vertex="1">
          <mxGeometry x="1244" y="260" width="340" height="30" as="geometry" />
        </mxCell>
        <mxCell id="nyr0VhtFXws825Zi8dbS-18" value="&lt;font&gt;TCP&lt;/font&gt;" style="text;html=1;align=center;verticalAlign=middle;resizable=0;points=[];autosize=1;strokeColor=none;fillColor=none;fontSize=14;" parent="1" vertex="1">
          <mxGeometry x="2065" y="750" width="50" height="30" as="geometry" />
        </mxCell>
        <mxCell id="nyr0VhtFXws825Zi8dbS-19" value="&lt;font&gt;TCP&lt;/font&gt;" style="text;html=1;align=center;verticalAlign=middle;resizable=0;points=[];autosize=1;strokeColor=none;fillColor=none;fontSize=14;" parent="1" vertex="1">
          <mxGeometry x="2200" y="750" width="50" height="30" as="geometry" />
        </mxCell>
        <mxCell id="nyr0VhtFXws825Zi8dbS-20" value="&lt;font&gt;TCP&lt;/font&gt;" style="text;html=1;align=center;verticalAlign=middle;resizable=0;points=[];autosize=1;strokeColor=none;fillColor=none;fontSize=14;" parent="1" vertex="1">
          <mxGeometry x="1910" y="880" width="50" height="30" as="geometry" />
        </mxCell>
        <mxCell id="nyr0VhtFXws825Zi8dbS-21" value="&lt;font&gt;TCP&lt;/font&gt;" style="text;html=1;align=center;verticalAlign=middle;resizable=0;points=[];autosize=1;strokeColor=none;fillColor=none;fontSize=14;" parent="1" vertex="1">
          <mxGeometry x="2290" y="910" width="50" height="30" as="geometry" />
        </mxCell>
        <mxCell id="nyr0VhtFXws825Zi8dbS-22" value="&lt;font&gt;TCP&lt;/font&gt;" style="text;html=1;align=center;verticalAlign=middle;resizable=0;points=[];autosize=1;strokeColor=none;fillColor=none;fontSize=14;" parent="1" vertex="1">
          <mxGeometry x="2260" y="1100" width="50" height="30" as="geometry" />
        </mxCell>
        <mxCell id="nyr0VhtFXws825Zi8dbS-23" value="&lt;font&gt;TCP&lt;/font&gt;" style="text;html=1;align=center;verticalAlign=middle;resizable=0;points=[];autosize=1;strokeColor=none;fillColor=none;fontSize=14;" parent="1" vertex="1">
          <mxGeometry x="2115" y="1230" width="50" height="30" as="geometry" />
        </mxCell>
        <mxCell id="nyr0VhtFXws825Zi8dbS-24" value="&lt;font&gt;TCP&lt;/font&gt;" style="text;html=1;align=center;verticalAlign=middle;resizable=0;points=[];autosize=1;strokeColor=none;fillColor=none;fontSize=14;" parent="1" vertex="1">
          <mxGeometry x="1950" y="1010" width="50" height="30" as="geometry" />
        </mxCell>
        <mxCell id="nyr0VhtFXws825Zi8dbS-25" value="&lt;font&gt;TCP&lt;/font&gt;" style="text;html=1;align=center;verticalAlign=middle;resizable=0;points=[];autosize=1;strokeColor=none;fillColor=none;fontSize=14;" parent="1" vertex="1">
          <mxGeometry x="1790" y="1049" width="50" height="30" as="geometry" />
        </mxCell>
        <mxCell id="nyr0VhtFXws825Zi8dbS-28" value="&lt;span&gt;HTTP 2&lt;/span&gt;" style="text;html=1;align=center;verticalAlign=middle;resizable=0;points=[];autosize=1;strokeColor=none;fillColor=none;fontSize=14;" parent="1" vertex="1">
          <mxGeometry x="1440" y="1620" width="60" height="30" as="geometry" />
        </mxCell>
        <mxCell id="nyr0VhtFXws825Zi8dbS-29" value="&lt;span&gt;HTTP 2&lt;/span&gt;" style="text;html=1;align=center;verticalAlign=middle;resizable=0;points=[];autosize=1;strokeColor=none;fillColor=none;fontSize=14;" parent="1" vertex="1">
          <mxGeometry x="1269" y="1540" width="60" height="30" as="geometry" />
        </mxCell>
        <mxCell id="nyr0VhtFXws825Zi8dbS-30" value="&lt;span&gt;HTTP 2&lt;/span&gt;" style="text;html=1;align=center;verticalAlign=middle;resizable=0;points=[];autosize=1;strokeColor=none;fillColor=none;fontSize=14;" parent="1" vertex="1">
          <mxGeometry x="1360" y="880" width="60" height="30" as="geometry" />
        </mxCell>
        <mxCell id="nyr0VhtFXws825Zi8dbS-31" value="&lt;span&gt;HTTP 2&lt;/span&gt;" style="text;html=1;align=center;verticalAlign=middle;resizable=0;points=[];autosize=1;strokeColor=none;fillColor=none;fontSize=14;" parent="1" vertex="1">
          <mxGeometry x="1265" y="660" width="60" height="30" as="geometry" />
        </mxCell>
        <mxCell id="nyr0VhtFXws825Zi8dbS-33" value="" style="endArrow=classic;startArrow=classic;html=1;rounded=0;exitX=0.002;exitY=0.339;exitDx=0;exitDy=0;exitPerimeter=0;edgeStyle=orthogonalEdgeStyle;entryX=0;entryY=0;entryDx=0;entryDy=80;entryPerimeter=0;fontSize=14;" parent="1" source="DEsD6xPvK2tIraXB0Mm6-114" target="DEsD6xPvK2tIraXB0Mm6-58" edge="1">
          <mxGeometry width="50" height="50" relative="1" as="geometry">
            <mxPoint x="2964" y="1219" as="sourcePoint" />
            <mxPoint x="2440" y="290" as="targetPoint" />
            <Array as="points">
              <mxPoint x="2964" y="290" />
              <mxPoint x="1690" y="290" />
            </Array>
          </mxGeometry>
        </mxCell>
        <mxCell id="nyr0VhtFXws825Zi8dbS-32" value="&lt;span&gt;HTTP 2&lt;/span&gt;" style="text;html=1;align=center;verticalAlign=middle;resizable=0;points=[];autosize=1;strokeColor=none;fillColor=none;fontSize=14;" parent="1" vertex="1">
          <mxGeometry x="2423.6" y="260" width="60" height="30" as="geometry" />
        </mxCell>
        <mxCell id="nyr0VhtFXws825Zi8dbS-34" value="&lt;span&gt;HTTP 2&lt;/span&gt;" style="text;html=1;align=center;verticalAlign=middle;resizable=0;points=[];autosize=1;strokeColor=none;fillColor=none;fontSize=14;" parent="1" vertex="1">
          <mxGeometry x="2020" y="1350" width="60" height="30" as="geometry" />
        </mxCell>
        <mxCell id="nyr0VhtFXws825Zi8dbS-35" value="&lt;span&gt;HTTP 2&lt;/span&gt;" style="text;html=1;align=center;verticalAlign=middle;resizable=0;points=[];autosize=1;strokeColor=none;fillColor=none;fontSize=14;" parent="1" vertex="1">
          <mxGeometry x="1603" y="1260" width="60" height="30" as="geometry" />
        </mxCell>
        <mxCell id="nyr0VhtFXws825Zi8dbS-36" value="&lt;span&gt;HTTP 2&lt;/span&gt;" style="text;html=1;align=center;verticalAlign=middle;resizable=0;points=[];autosize=1;strokeColor=none;fillColor=none;fontSize=14;" parent="1" vertex="1">
          <mxGeometry x="2210" y="450" width="60" height="30" as="geometry" />
        </mxCell>
        <mxCell id="nyr0VhtFXws825Zi8dbS-37" value="&lt;span&gt;HTTP 2&lt;/span&gt;" style="text;html=1;align=center;verticalAlign=middle;resizable=0;points=[];autosize=1;strokeColor=none;fillColor=none;fontSize=14;" parent="1" vertex="1">
          <mxGeometry x="1500" y="1169" width="60" height="30" as="geometry" />
        </mxCell>
        <mxCell id="nyr0VhtFXws825Zi8dbS-38" value="&lt;span&gt;HTTP 2&lt;/span&gt;" style="text;html=1;align=center;verticalAlign=middle;resizable=0;points=[];autosize=1;strokeColor=none;fillColor=none;fontSize=14;" parent="1" vertex="1">
          <mxGeometry x="1444" y="1019" width="60" height="30" as="geometry" />
        </mxCell>
        <mxCell id="nyr0VhtFXws825Zi8dbS-39" value="&lt;span&gt;HTTP 2&lt;/span&gt;" style="text;html=1;align=center;verticalAlign=middle;resizable=0;points=[];autosize=1;strokeColor=none;fillColor=none;fontSize=14;" parent="1" vertex="1">
          <mxGeometry x="2363.6" y="1036" width="60" height="30" as="geometry" />
        </mxCell>
        <mxCell id="nyr0VhtFXws825Zi8dbS-42" value="&lt;span&gt;HTTP 2&lt;/span&gt;" style="text;html=1;align=center;verticalAlign=middle;resizable=0;points=[];autosize=1;strokeColor=none;fillColor=none;fontSize=14;" parent="1" vertex="1">
          <mxGeometry x="1930" y="620" width="60" height="30" as="geometry" />
        </mxCell>
        <mxCell id="nyr0VhtFXws825Zi8dbS-43" value="&lt;span&gt;HTTP 2&lt;/span&gt;" style="text;html=1;align=center;verticalAlign=middle;resizable=0;points=[];autosize=1;strokeColor=none;fillColor=none;fontSize=14;" parent="1" vertex="1">
          <mxGeometry x="2340" y="1430" width="60" height="30" as="geometry" />
        </mxCell>
        <mxCell id="nyr0VhtFXws825Zi8dbS-44" value="&lt;span&gt;HTTP 2&lt;/span&gt;" style="text;html=1;align=center;verticalAlign=middle;resizable=0;points=[];autosize=1;strokeColor=none;fillColor=none;fontSize=14;" parent="1" vertex="1">
          <mxGeometry x="2110" y="1600" width="60" height="30" as="geometry" />
        </mxCell>
        <mxCell id="nyr0VhtFXws825Zi8dbS-45" value="&lt;span&gt;HTTP 2&lt;/span&gt;" style="text;html=1;align=center;verticalAlign=middle;resizable=0;points=[];autosize=1;strokeColor=none;fillColor=none;fontSize=14;" parent="1" vertex="1">
          <mxGeometry x="2750" y="1480" width="60" height="30" as="geometry" />
        </mxCell>
        <mxCell id="nyr0VhtFXws825Zi8dbS-46" value="&lt;span&gt;HTTP 2&lt;/span&gt;" style="text;html=1;align=center;verticalAlign=middle;resizable=0;points=[];autosize=1;strokeColor=none;fillColor=none;fontSize=14;" parent="1" vertex="1">
          <mxGeometry x="2640" y="1300" width="60" height="30" as="geometry" />
        </mxCell>
        <mxCell id="nyr0VhtFXws825Zi8dbS-47" value="&lt;span&gt;HTTP 2&lt;/span&gt;" style="text;html=1;align=center;verticalAlign=middle;resizable=0;points=[];autosize=1;strokeColor=none;fillColor=none;fontSize=14;" parent="1" vertex="1">
          <mxGeometry x="2510" y="830" width="60" height="30" as="geometry" />
        </mxCell>
        <mxCell id="nyr0VhtFXws825Zi8dbS-48" value="&lt;span&gt;HTTP 2&lt;/span&gt;" style="text;html=1;align=center;verticalAlign=middle;resizable=0;points=[];autosize=1;strokeColor=none;fillColor=none;fontSize=14;" parent="1" vertex="1">
          <mxGeometry x="2792" y="800" width="60" height="30" as="geometry" />
        </mxCell>
        <mxCell id="nyr0VhtFXws825Zi8dbS-49" value="&lt;span&gt;HTTPS&lt;/span&gt;" style="text;html=1;align=center;verticalAlign=middle;resizable=0;points=[];autosize=1;strokeColor=none;fillColor=none;fontSize=14;" parent="1" vertex="1">
          <mxGeometry x="3225" y="880" width="70" height="30" as="geometry" />
        </mxCell>
        <mxCell id="nyr0VhtFXws825Zi8dbS-50" value="&lt;span&gt;HTTP 1.1&lt;/span&gt;" style="text;html=1;align=center;verticalAlign=middle;resizable=0;points=[];autosize=1;strokeColor=none;fillColor=none;fontSize=14;" parent="1" vertex="1">
          <mxGeometry x="3150" y="1109" width="80" height="30" as="geometry" />
        </mxCell>
        <mxCell id="nyr0VhtFXws825Zi8dbS-51" value="&lt;span&gt;HTTPS&lt;/span&gt;" style="text;html=1;align=center;verticalAlign=middle;resizable=0;points=[];autosize=1;strokeColor=none;fillColor=none;fontSize=14;" parent="1" vertex="1">
          <mxGeometry x="3255" y="1170" width="70" height="30" as="geometry" />
        </mxCell>
        <mxCell id="nyr0VhtFXws825Zi8dbS-52" value="&lt;span&gt;HTTP 2&lt;/span&gt;" style="text;html=1;align=center;verticalAlign=middle;resizable=0;points=[];autosize=1;strokeColor=none;fillColor=none;fontSize=14;" parent="1" vertex="1">
          <mxGeometry x="2860" y="680" width="60" height="30" as="geometry" />
        </mxCell>
        <mxCell id="nyr0VhtFXws825Zi8dbS-53" value="&lt;span&gt;HTTP 1.1&lt;/span&gt;" style="text;html=1;align=center;verticalAlign=middle;resizable=0;points=[];autosize=1;strokeColor=none;fillColor=none;fontSize=14;" parent="1" vertex="1">
          <mxGeometry x="3094" y="1360" width="80" height="30" as="geometry" />
        </mxCell>
        <mxCell id="nyr0VhtFXws825Zi8dbS-54" value="&lt;span&gt;HTTP 1.1&lt;/span&gt;" style="text;html=1;align=center;verticalAlign=middle;resizable=0;points=[];autosize=1;strokeColor=none;fillColor=none;fontSize=14;" parent="1" vertex="1">
          <mxGeometry x="3081" y="1830" width="80" height="30" as="geometry" />
        </mxCell>
        <mxCell id="nyr0VhtFXws825Zi8dbS-55" value="&lt;span&gt;HTTP 2&lt;/span&gt;" style="text;html=1;align=center;verticalAlign=middle;resizable=0;points=[];autosize=1;strokeColor=none;fillColor=none;fontSize=14;" parent="1" vertex="1">
          <mxGeometry x="2570" y="460" width="60" height="30" as="geometry" />
        </mxCell>
        <mxCell id="nyr0VhtFXws825Zi8dbS-56" value="&lt;span&gt;HTTP 2&lt;/span&gt;" style="text;html=1;align=center;verticalAlign=middle;resizable=0;points=[];autosize=1;strokeColor=none;fillColor=none;fontSize=14;" parent="1" vertex="1">
          <mxGeometry x="2210" y="350" width="60" height="30" as="geometry" />
        </mxCell>
      </root>
    </mxGraphModel>
  </diagram>
</mxfile>
